<?xml version="1.0" encoding="UTF-8"?>
<svg width="1200pt" height="1200pt" version="1.1" viewBox="0 0 1200 1200" xmlns="http://www.w3.org/2000/svg">
 <path d="m823.64 665.86 75.562-130.87c2.0156-3.4688 1.8281-7.7344-0.375-11.062s-6.1406-5.1094-10.078-4.5469l-128.02 17.344-166.6-96.188v-163.69c0-5.7656-4.6875-10.453-10.453-10.453h-104.62c-5.7656 0-10.453 4.6875-10.453 10.453v93.188c-22.312-6.1875-46.875 3.0938-59.016 24.047l-11.344 19.641-21.797-12.562c-10.641-6.1406-23.016-7.7344-34.922-4.5469s-21.844 10.781-27.984 21.422l-35.578 61.594c-12.703 21.984-5.1094 50.203 16.828 62.906l21.797 12.562-11.344 19.641c-14.344 24.844-5.8125 56.766 19.031 71.109l279.98 161.68 48.984 119.53c1.5 3.7031 4.9688 6.1875 8.9531 6.4688 0.23438 0 0.46875 0.046875 0.70312 0.046875 3.7031 0 7.1719-1.9688 9.0469-5.2031l75.516-130.82c9.2344 3.7969 18.984 5.7188 28.875 5.7188 6.6562 0 13.359-0.89062 20.016-2.6719 19.828-5.2969 36.375-18 46.641-35.766s12.984-38.438 7.6875-58.266c-4.4062-16.406-13.922-30.516-27.141-40.734zm-334.08-378.52h83.719v207.94c0 21.656-17.625 39.281-39.281 39.281h-2.5781c-23.062 0-41.859-18.797-41.859-41.859v-205.4zm-184.18 237.14c-12-6.9375-16.125-22.359-9.1875-34.359l35.578-61.594c3.3281-5.7656 8.7656-9.9375 15.281-11.672 2.2031-0.60938 4.4062-0.89062 6.6094-0.89062 4.3594 0 8.625 1.125 12.469 3.3281l21.797 12.562-60.75 105.19zm18.094 60.75 16.547-28.688 35.578-61.641 52.172-90.328c5.7656-9.9844 16.266-15.562 27.047-15.562 4.6875 0 9.4219 1.0781 13.875 3.2812v100.41c0 34.594 28.172 62.766 62.766 62.766h2.5781c33.188 0 60.188-27 60.188-60.188v-30.562l150.19 86.719-135.47 234.66-274.03-158.21c-14.859-8.5781-20.016-27.703-11.391-42.562zm341.16 314.26-40.312-98.391 140.81-243.84 105.38-14.297-69.75 120.84-66.328 114.89-69.75 120.79zm160.36-145.08c-7.4531 12.938-19.5 22.172-33.938 26.016-10.969 2.9531-22.359 2.4844-32.859-1.2188l54.891-95.109c8.4375 7.2656 14.531 16.875 17.484 27.891 3.8438 14.438 1.875 29.484-5.5781 42.422zm87.094 50.297c-1.9219 3.3281-5.4375 5.2031-9.0469 5.2031-1.7812 0-3.5625-0.46875-5.2031-1.4062l-33.516-19.359c-5.0156-2.9062-6.7031-9.2812-3.8438-14.25 2.9062-5.0156 9.2812-6.7031 14.25-3.8438l33.516 19.359c5.0156 2.9062 6.7031 9.2812 3.8438 14.25zm-87.609 60.094c1.5 5.5781-1.8281 11.297-7.4062 12.797-0.89062 0.23438-1.8281 0.375-2.7188 0.375-4.5938 0-8.8125-3.0938-10.078-7.7344l-10.031-37.406c-1.5-5.5781 1.8281-11.297 7.4062-12.797s11.297 1.8281 12.797 7.4062l10.031 37.406zm95.859-166.03-37.406 10.031c-0.89062 0.23437-1.8281 0.375-2.7188 0.375-4.5938 0-8.8125-3.0938-10.078-7.7344-1.5-5.5781 1.8281-11.297 7.4062-12.797l37.406-10.031c5.5781-1.5 11.297 1.8281 12.797 7.4062 1.5 5.5781-1.8281 11.297-7.4062 12.797zm-388.92-177.1c16.453 0 29.859-13.406 29.859-29.859s-13.406-29.859-29.859-29.859-29.859 13.406-29.859 29.859 13.406 29.859 29.859 29.859zm0-38.859c4.9688 0 9 4.0312 9 9s-4.0312 9-9 9-9-4.0312-9-9 4.0312-9 9-9z"/>
</svg>
