<?xml version="1.0" encoding="UTF-8"?>
<svg width="1200pt" height="1200pt" version="1.1" viewBox="0 0 1200 1200" xmlns="http://www.w3.org/2000/svg">
 <path d="m833.48 624.56h48.281c7.0312 0 12.703 5.6719 12.703 12.703v19.641l52.922-52.922c4.9688-4.9688 12.984-4.9688 17.953 0 2.4844 2.4844 3.7031 5.7188 3.7031 9v2.5781c1.3125-1.7812 2.5781-3.7031 3.75-5.7656 6.0469-10.5 10.172-24.141 12.375-40.922 0.51562-3.8438 2.6719-7.0781 5.7188-9 18.141-12.609 36-18.656 53.578-18.469 17.906 0.14062 34.969 6.6562 51.234 19.078 3.7031 2.8594 5.4375 7.3125 4.875 11.672 13.688 18.188 19.734 37.453 17.719 57.844-2.0625 20.953-12.75 42.469-32.391 64.5-1.5938 1.7812-3.7031 3.1406-6.1875 3.8438l-24.75 6.6094c0.375 0.28125 0.70312 0.60938 1.0312 0.9375 4.9688 4.9688 4.9688 12.984 0 17.953l-78.516 78.516-0.046875-0.046875c-1.0312 1.0312-2.2969 1.9219-3.7031 2.5781l-44.672 20.531 0.70312 0.42188c1.3125 0.60938 2.5781 1.4531 3.7031 2.5781 4.9688 4.9688 4.9688 12.984 0 17.953l-39.047 39.047v58.688c0 7.0312-5.6719 12.703-12.703 12.703h-62.062c-46.312 36.047-92.672 45.703-146.11 56.812l-5.7656 1.2188-35.25 35.25c-4.9688 4.9688-12.984 4.9688-17.953 0s-4.9688-12.984 0-17.953l34.969-34.969c1.125-7.5 2.0625-15.375 3-22.875 0.75-5.9531 1.4531-11.719 2.25-17.391l-560.81-0.1875c-7.0312 0-12.703-5.6719-12.703-12.703v-306.74c0-7.0312 5.6719-12.703 12.703-12.703h48.281v-54.844c0-7.0312 5.6719-12.703 12.703-12.703 0.375 0 0.70312 0 1.0781 0.046874 60.422-0.23437 118.83 5.0625 174.94 16.781 52.781 11.016 103.5 27.703 151.87 50.719h2.0625c50.766-25.031 104.16-42.938 159.84-54.562 56.062-11.719 114.47-17.016 174.94-16.781 0.32813-0.046874 0.70313-0.046874 1.0781-0.046874 7.0312 0 12.703 5.6719 12.703 12.703zm35.578 57.75v-32.344h-35.578v93.094c4.5469-9.7969 8.7656-21.797 12.797-35.625 0.60938-2.1562 1.7344-4.0312 3.2344-5.4844zm-60.984 74.438v-178.22c-54.516 0.42188-107.3 5.625-158.11 16.266-51.891 10.828-101.77 27.375-149.34 50.391v271.26c33.188-14.953 66.141-27.656 98.766-37.781 37.031-11.484 73.547-19.688 109.55-24.281l33.375-38.391c-27.422 0-55.219 3.8438-83.625 11.438-37.922 10.172-76.875 27.094-117.28 50.766-6.0469 3.5156-13.781 1.5-17.297-4.5-3.5156-6.0469-1.5-13.781 4.5-17.297 42.516-24.891 83.531-42.703 123.56-53.438 37.828-10.125 74.859-14.016 111.56-11.531l28.031-32.25c4.0781-4.875 11.109-5.7656 16.312-2.4375zm-110.67 124.87c-29.859 4.6406-60.094 11.766-90.609 21.281-25.406 7.875-51.047 17.391-76.969 28.406h129.89c1.875-7.5938 4.3125-15.422 7.5938-23.766 2.5312-6.5156 9.8906-9.75 16.406-7.1719 1.6875 0.65625 3.1406 1.6406 4.3594 2.8594l2.7656 2.7656zm-15.047 64.828-0.046875 0.1875c-1.3594 6.9375-2.3438 13.828-3.2812 21l392.76-392.76c-9.0938-5.2969-18.234-8.0625-27.516-8.1562-11.016-0.09375-22.641 3.5625-34.828 11.25-2.8125 17.531-7.6875 32.344-14.672 44.484-8.1094 14.109-18.938 24.469-32.438 30.984-1.7812 0.9375-3.7969 1.5-5.9531 1.5-6.5625 0-11.953-4.9688-12.609-11.344l-74.062 74.062c-4.0781 13.781-8.5781 26.062-13.547 36.656-5.5781 11.906-11.719 21.609-18.562 28.781-2.5312 2.6719-5.4375 4.6875-8.6719 6.0938s-6.7031 2.1094-10.359 2.1562c-3.75 0.046875-7.2188-0.60938-10.406-1.875-2.2031-0.89062-4.2188-2.0625-6.1406-3.5625l-20.391 23.484c-1.0781 2.6719-3 4.8281-5.4375 6.2344l-50.344 57.891-15.984 59.719c-0.51562 2.2969-1.6406 4.5-3.4219 6.3281-4.9688 4.9688-12.984 4.9688-17.953 0l-3.7031-3.6562c-0.9375 3.4688-1.7344 6.9844-2.4375 10.547zm18.516 35.25c42-9.7969 79.828-22.875 117.19-56.719l-8.1094-4.6875c-6.0469-3.4688-8.1562-11.203-4.6406-17.25 0.89062-1.5469 2.0625-2.8125 3.375-3.7969 9.2812-7.3125 18.844-12.375 28.734-15.094 7.9688-2.2031 16.078-2.8125 24.188-1.7812l42.375-42.375-8.5781-4.9688c-6.0469-3.4688-8.1562-11.203-4.6406-17.25 1.3594-2.3906 3.375-4.125 5.7188-5.2031l64.734-29.766 61.453-61.453-17.812-4.7812c-6.75-1.8281-10.781-8.7656-9-15.516 1.2188-4.5938 4.8281-7.9219 9.1406-9l64.547-17.297c14.391-16.875 22.219-32.625 23.672-47.297 1.0312-10.594-1.2656-20.953-6.8438-31.125zm168.19-73.453c-1.9688 0.51562-4.0781 0.5625-6.2344 0.046875-6.4219-1.5938-12.703-1.4531-18.891 0.23438-0.84375 0.23438-1.6406 0.46875-2.4844 0.75l3.0938 1.7812c1.125 0.5625 2.2031 1.3125 3.1406 2.25 5.0156 4.875 5.1094 12.891 0.23438 17.906l-0.046875 0.046875h21.141zm-412.69-682.69c16.406 0 31.359 6.7031 42.188 17.531 10.828 10.828 17.531 25.734 17.531 42.188v26.016c0 13.875-4.7812 26.672-12.797 36.844 13.172 6.6094 24.797 15.938 34.125 27.234 13.828 16.781 22.547 37.875 23.812 61.031v0.75c-0.046875 6.9844-5.7656 12.609-12.75 12.562l-183.52-1.7812c-0.5625 0.046874-1.125 0.046874-1.6875 0-6.9844-0.51563-12.234-6.5625-11.766-13.547 1.6875-22.688 10.594-43.359 24.422-59.812 9.2344-10.922 20.578-19.969 33.469-26.438-7.9688-10.125-12.75-22.922-12.75-36.797v-26.016c0-16.453 6.7031-31.359 17.531-42.188 10.828-10.875 25.781-17.578 42.188-17.578zm23.766 140.44c-7.3125 3.1875-15.328 4.9688-23.766 4.9688s-16.5-1.7812-23.812-4.9688c-14.719 4.5938-27.609 13.312-37.266 24.797-7.6406 9.0938-13.312 19.969-16.312 31.922l155.02 1.5c-2.8125-12.234-8.4375-23.391-16.172-32.766-9.7031-11.812-22.734-20.766-37.688-25.453zm-23.766-115.03c-9.4219 0-18 3.8438-24.188 10.078-6.2344 6.2344-10.078 14.812-10.078 24.188v26.016c0 9.4219 3.8438 18 10.078 24.188 6.2344 6.2344 14.812 10.078 24.188 10.078 9.4219 0 18-3.8438 24.188-10.078 6.2344-6.2344 10.078-14.812 10.078-24.188v-26.016c0-9.4219-3.8438-18-10.078-24.188-6.1875-6.1875-14.766-10.078-24.188-10.078zm-37.875 268.13c3.7969 15.328 12.656 27.141 25.125 36 15.562 11.016 36.562 16.922 59.812 18.656 4.2188 0.32812 8.5312-1.5 11.203-5.2031 4.125-5.6719 2.8594-13.594-2.8125-17.719-6.7969-4.9219-11.484-10.969-12.984-17.484-1.0312-4.5-0.60938-9.5156 1.5938-14.859 40.875-9.4219 76.641-32.297 102.38-63.797 26.578-32.484 42.562-74.109 42.562-119.44 0-52.172-21.141-99.422-55.359-133.6-34.172-34.172-81.422-55.359-133.6-55.359-52.172 0-99.422 21.141-133.6 55.359-34.172 34.172-55.359 81.422-55.359 133.6 0 46.969 17.203 90 45.656 122.95 26.766 31.031 63.562 53.016 105.38 60.891zm-86.25-77.484c24.844 28.734 59.578 48.516 98.859 53.906 5.7188 0.75 10.359 5.3906 10.922 11.344 1.1719 12.141 7.0781 21.188 16.172 27.609 4.8281 3.4219 10.547 6.1406 16.922 8.3438-0.375-1.2188-0.75-2.4844-1.0312-3.7969-2.7188-11.625-1.0312-24.328 6.4219-37.312 1.6875-3.4219 4.9219-6.0469 8.9531-6.7969 37.406-7.2656 70.266-27.703 93.656-56.297 22.969-28.078 36.797-64.078 36.797-103.36 0-45.141-18.328-86.062-47.906-115.64s-70.453-47.906-115.64-47.906c-45.141 0-86.062 18.281-115.64 47.906-29.578 29.578-47.906 70.453-47.906 115.64 0 40.734 14.859 77.953 39.422 106.36zm116.72 238.87c-42.516-24.891-84.047-42.703-124.64-53.484-40.875-10.828-80.859-14.484-119.91-10.969-6.9844 0.60937-12.094 6.75-11.531 13.688 0.60938 6.9844 6.75 12.094 13.688 11.531 36.047-3.2344 73.125 0.1875 111.28 10.266 38.438 10.172 77.859 27.094 118.27 50.766 6.0469 3.5156 13.781 1.5 17.297-4.5 3.6094-6 1.5938-13.781-4.4531-17.297zm0 58.641c-42.516-24.891-84.047-42.703-124.64-53.438-40.875-10.828-80.859-14.484-119.91-10.969-6.9844 0.60937-12.094 6.75-11.531 13.688 0.60938 6.9375 6.75 12.094 13.688 11.531 36.047-3.2344 73.125 0.1875 111.28 10.266 38.438 10.172 77.859 27.094 118.27 50.766 6.0469 3.5156 13.781 1.5 17.297-4.5 3.6094-6.0469 1.5938-13.828-4.4531-17.344zm0 58.641c-42.516-24.891-84.047-42.703-124.64-53.484-40.875-10.828-80.859-14.484-119.91-10.969-6.9844 0.60937-12.094 6.75-11.531 13.688 0.60938 6.9844 6.75 12.094 13.688 11.531 36.047-3.2344 73.125 0.1875 111.28 10.266 38.438 10.172 77.859 27.094 118.27 50.766 6.0469 3.5156 13.781 1.5 17.297-4.5 3.6094-6 1.5938-13.781-4.4531-17.297zm0 58.641c-42.516-24.891-84.047-42.703-124.64-53.438-40.875-10.828-80.859-14.484-119.91-10.969-6.9844 0.60937-12.094 6.75-11.531 13.688 0.60938 6.9375 6.75 12.094 13.688 11.531 36.047-3.2344 73.125 0.1875 111.28 10.266 38.438 10.172 77.859 27.094 118.27 50.766 6.0469 3.5156 13.781 1.5 17.297-4.5 3.6094-6.0469 1.5938-13.828-4.4531-17.344zm92.391-154.08c40.406-23.672 79.875-40.594 118.27-50.766 38.109-10.078 75.188-13.5 111.28-10.266 6.9375 0.60938 13.078-4.5469 13.688-11.531 0.60938-6.9375-4.5469-13.078-11.531-13.688-39.047-3.5156-79.031 0.14063-119.91 10.969-40.594 10.734-82.125 28.547-124.64 53.484-6.0469 3.5156-8.0625 11.297-4.5 17.297s11.297 8.0156 17.344 4.5zm0 58.641c40.406-23.672 79.875-40.594 118.27-50.766 38.109-10.078 75.188-13.5 111.28-10.266 6.9375 0.60937 13.078-4.5469 13.688-11.531 0.60938-6.9844-4.5469-13.078-11.531-13.688-39.047-3.5156-78.984 0.14062-119.91 10.969-40.594 10.734-82.125 28.547-124.64 53.438-6.0469 3.5156-8.0625 11.297-4.5 17.297 3.5625 6.0469 11.297 8.0625 17.344 4.5469zm0 58.641c40.406-23.672 79.875-40.594 118.27-50.766 38.109-10.078 75.188-13.5 111.28-10.266 6.9375 0.60938 13.078-4.5469 13.688-11.531 0.60938-6.9375-4.5469-13.078-11.531-13.688-39.047-3.5156-79.031 0.14063-119.91 10.969-40.594 10.734-82.125 28.547-124.64 53.484-6.0469 3.5156-8.0625 11.297-4.5 17.297s11.297 8.0156 17.344 4.5zm-104.62 111.7c-41.156-16.969-81.656-30.094-121.5-38.906-54.234-12-107.3-16.078-159.05-11.062-6.9375 0.65625-13.125-4.4531-13.781-11.391-0.046875-0.375-0.046875-0.79687-0.046875-1.1719l-0.046875-0.046876v-218.76h-35.625v281.34zm-110.91-332.68c-50.812-10.641-103.59-15.797-158.11-16.266v272.58c49.969-3.3281 100.97 1.1719 153 12.703 50.719 11.203 102.23 29.062 154.5 52.594l-0.046875-271.22-0.1875-0.09375c-0.32812-0.14062-0.65625-0.28125-0.9375-0.46875-47.203-22.688-96.703-39.047-148.22-49.828z" fill-rule="evenodd"/>
</svg>
