<?xml version="1.0" encoding="UTF-8"?>
<svg width="1200pt" height="1200pt" version="1.1" viewBox="0 0 1200 1200" xmlns="http://www.w3.org/2000/svg">
 <path d="m830.22 536.95c9.918-4.25 21.25-9.918 32.586-15.586 58.086 42.504 137.43 36.836 191.26-12.75 97.758-93.508 31.168-257.85-102.01-259.27-94.922-1.418-167.18 85.008-148.76 178.51-111.93 80.754-170.01 124.68-140.26-42.504 144.51-66.59 96.34-286.19-62.336-286.19-160.09 0-208.27 219.6-63.754 286.19 29.754 167.18-28.336 123.26-140.26 42.504 19.836-94.922-56.672-182.76-151.59-179.93-133.18 5.668-196.93 168.59-99.172 260.68 52.422 49.586 133.18 55.254 192.68 12.75 9.918 5.668 21.25 11.336 31.168 15.586 53.836 28.336 104.84 53.836 148.76 83.59 28.336 15.586 41.086 53.836 2.832 56.672-34.004 4.25-75.09-9.918-111.93-24.086-28.336-45.336-76.504-69.422-126.09-69.422-92.09 0-164.34 83.59-147.34 175.68 11.336 69.422 72.254 121.84 143.09 123.26 70.84 2.832 134.59-46.754 150.18-116.18 100.59 4.25 103.43 48.172 104.84 49.586v133.18c0 14.168-4.25 26.918-14.168 36.836s-22.668 14.168-36.836 14.168c-32.586 0-62.336 15.586-80.754 41.086h-178.51c-9.918 0-17 7.082-17 17 0 8.5 7.082 17 17 17h752.3c8.5 0 17-8.5 17-17 0-9.918-8.5-17-17-17h-178.51c-18.418-25.5-48.172-41.086-80.754-41.086-14.168 0-26.918-4.25-36.836-14.168-8.5-9.918-14.168-22.668-12.75-35.418v-133.18c0-2.832 2.832-46.754 103.43-51.004 15.586 70.84 79.34 119.01 150.18 117.59 72.254-2.832 131.76-55.254 144.51-124.68 15.586-93.508-56.672-177.09-150.18-175.68-49.586 0-96.34 25.5-124.68 69.422-31.168 12.75-66.59 25.5-99.172 25.5-59.504 0-29.754-45.336-7.082-60.922 21.25-15.586 134.59-75.09 145.93-80.754zm-287.6 473.2c17-15.586 25.5-38.254 24.086-59.504v-134.59c0-2.832-1.418-76.504-133.18-82.172 0-12.75-1.418-25.5-5.668-38.254 26.918 9.918 53.836 15.586 80.754 15.586h17c66.59-7.082 70.84-83.59 11.336-119.01-46.754-29.754-97.758-56.672-151.59-83.59-7.082-4.25-14.168-8.5-21.25-11.336 8.5-11.336 17-22.668 22.668-35.418 117.59 83.59 215.35 127.51 185.6-65.172 18.418 4.25 36.836 4.25 55.254 0-29.754 192.68 68.004 148.76 185.6 65.172 5.668 12.75 14.168 24.086 22.668 35.418-7.082 2.832-14.168 7.082-21.25 11.336-53.836 26.918-104.84 53.836-151.59 83.59-63.754 38.254-55.254 119.01 28.336 119.01 26.918 0 55.254-5.668 80.754-15.586-4.25 12.75-5.668 25.5-5.668 38.254-130.34 5.668-133.18 79.34-133.18 82.172v134.59c0 21.25 8.5 43.918 24.086 59.504 35.418 35.418 62.336 12.75 90.672 31.168h-296.11c34.004-18.418 56.672 2.832 90.672-31.168zm330.11-524.2c7.082-19.836 24.086-36.836 43.918-45.336 21.25 12.75 46.754 12.75 66.59 0 21.25 8.5 36.836 25.5 45.336 45.336-45.336 41.086-111.93 41.086-155.84 0zm77.922-69.422c-18.418 0-34.004-15.586-34.004-34.004 0-18.418 15.586-32.586 34.004-32.586 18.418 0 32.586 14.168 32.586 32.586 0 18.418-14.168 34.004-32.586 34.004zm0-133.18c89.258 0 145.93 97.758 100.59 174.26-9.918-17-25.5-32.586-42.504-42.504 5.668-9.918 8.5-21.25 8.5-32.586 0-36.836-29.754-66.59-66.59-66.59-36.836 0-66.59 29.754-66.59 66.59 0 11.336 2.832 22.668 8.5 32.586-18.418 9.918-32.586 25.5-43.918 42.504-43.918-76.504 11.336-174.26 102.01-174.26zm-427.86 53.836c7.082-21.25 24.086-38.254 43.918-46.754 19.836 12.75 46.754 12.75 66.59 0 21.25 8.5 36.836 25.5 43.918 46.754-43.918 39.668-110.51 39.668-154.43 0zm77.922-70.84c-18.418 0-34.004-14.168-34.004-32.586s15.586-34.004 34.004-34.004 32.586 15.586 32.586 34.004-14.168 32.586-32.586 32.586zm0-133.18c89.258 0 145.93 97.758 100.59 174.26-9.918-17-25.5-32.586-42.504-42.504 5.668-9.918 8.5-19.836 8.5-31.168 0-36.836-29.754-68.004-66.59-68.004s-66.59 31.168-66.59 68.004c0 11.336 2.832 21.25 8.5 31.168-18.418 9.918-32.586 25.5-43.918 42.504-43.918-76.504 11.336-174.26 102.01-174.26zm-351.36 150.18c90.672 0 147.34 97.758 102.01 174.26-11.336-17-25.5-32.586-43.918-42.504 5.668-9.918 9.918-21.25 9.918-32.586 0-36.836-31.168-66.59-68.004-66.59-35.418 0-66.59 29.754-66.59 66.59 0 11.336 4.25 22.668 9.918 32.586-18.418 9.918-32.586 25.5-43.918 42.504-45.336-76.504 11.336-174.26 100.59-174.26zm-32.586 99.172c0-18.418 15.586-32.586 32.586-32.586 18.418 0 34.004 14.168 34.004 32.586s-15.586 34.004-34.004 34.004c-17 0-32.586-15.586-32.586-34.004zm-43.918 103.43c7.082-19.836 22.668-36.836 43.918-45.336 19.836 12.75 46.754 12.75 66.59 0 21.25 8.5 36.836 25.5 43.918 45.336-43.918 41.086-110.51 41.086-154.43 0zm110.51 130.34c41.086 0 80.754 22.668 100.59 58.086 21.25 36.836 21.25 80.754 0 117.59-9.918-18.418-24.086-32.586-42.504-42.504 5.668-9.918 8.5-21.25 8.5-32.586 0-36.836-29.754-66.59-66.59-66.59-36.836 0-66.59 29.754-66.59 66.59 0 11.336 2.832 22.668 8.5 32.586-17 9.918-32.586 24.086-42.504 42.504-45.336-77.922 11.336-175.68 100.59-175.68zm-34.004 100.59c0-18.418 15.586-34.004 34.004-34.004 18.418 0 34.004 15.586 34.004 34.004 0 18.418-15.586 32.586-34.004 32.586-18.418 0-32.586-14.168-34.004-32.586zm-43.918 103.43c8.5-21.25 24.086-38.254 43.918-46.754 21.25 12.75 46.754 12.75 68.004 0 19.836 8.5 35.418 25.5 43.918 46.754-43.918 39.668-111.93 39.668-155.84 0zm633.29 0c8.5-21.25 24.086-38.254 43.918-46.754 21.25 12.75 46.754 12.75 68.004 0 19.836 8.5 35.418 25.5 43.918 46.754-43.918 39.668-111.93 39.668-155.84 0zm77.922-70.84c-18.418 0-32.586-14.168-32.586-32.586 0-18.418 14.168-34.004 32.586-34.004s34.004 15.586 34.004 34.004c0 18.418-15.586 32.586-34.004 32.586zm0-133.18c89.258 0 145.93 97.758 100.59 175.68-9.918-18.418-24.086-32.586-42.504-42.504 5.668-9.918 8.5-21.25 8.5-32.586 0-36.836-29.754-66.59-66.59-66.59s-66.59 29.754-66.59 66.59c0 11.336 2.832 22.668 8.5 32.586-17 9.918-32.586 24.086-42.504 42.504-21.25-36.836-21.25-80.754 0-117.59 21.25-35.418 59.504-58.086 100.59-58.086z" fill-rule="evenodd"/>
</svg>
